<?xml version="1.0" standalone="no"?>
<!DOCTYPE svg PUBLIC "-//W3C//DTD SVG 20010904//EN"
 "http://www.w3.org/TR/2001/REC-SVG-20010904/DTD/svg10.dtd">
<svg version="1.0" xmlns="http://www.w3.org/2000/svg"
 width="2526.000000pt" height="2526.000000pt" viewBox="0 0 2526.000000 2526.000000"
 preserveAspectRatio="xMidYMid meet">
<metadata>
Created by potrace 1.14, written by Peter Selinger 2001-2017
</metadata>
<g transform="translate(0.000000,2526.000000) scale(0.100000,-0.100000)"
fill="#000000" stroke="none">
<path d="M12159 25256 c-2 -2 -76 -7 -164 -10 -88 -4 -180 -9 -205 -11 -25 -2
-83 -7 -130 -10 -47 -3 -103 -8 -125 -10 -22 -2 -71 -7 -110 -10 -105 -9 -310
-32 -364 -40 -14 -3 -51 -7 -84 -10 -32 -4 -66 -8 -75 -10 -9 -1 -53 -8 -97
-14 -805 -117 -1626 -320 -2385 -589 -178 -63 -471 -175 -545 -207 -16 -7
-106 -46 -200 -85 -93 -40 -212 -92 -264 -116 -51 -24 -95 -44 -97 -44 -3 0
-96 -44 -207 -99 -712 -347 -1424 -783 -2062 -1264 -235 -178 -560 -442 -744
-606 -41 -36 -95 -84 -119 -106 -231 -206 -733 -709 -947 -950 -670 -752
-1213 -1519 -1690 -2390 -79 -144 -355 -687 -355 -699 0 -3 -21 -49 -46 -102
-247 -526 -546 -1353 -698 -1934 -96 -367 -186 -762 -221 -970 -3 -19 -10 -53
-15 -75 -12 -55 -78 -478 -85 -545 -3 -30 -8 -62 -10 -70 -4 -13 -20 -152 -31
-265 -2 -22 -6 -51 -8 -65 -3 -14 -8 -68 -12 -120 -3 -52 -7 -97 -9 -100 -2
-3 -6 -61 -10 -130 -4 -69 -9 -133 -11 -143 -26 -140 -26 -1370 1 -1672 5 -54
12 -139 20 -250 6 -72 32 -332 40 -395 2 -19 7 -57 10 -85 107 -902 356 -1924
687 -2815 130 -351 241 -616 410 -980 41 -88 278 -563 288 -575 4 -5 26 -46
50 -90 265 -494 643 -1082 1004 -1560 104 -137 396 -506 416 -525 3 -3 46 -52
95 -110 92 -107 231 -264 339 -380 189 -203 686 -688 856 -836 25 -21 47 -41
50 -45 9 -10 275 -235 390 -329 147 -121 552 -426 740 -556 1352 -937 2820
-1585 4420 -1948 160 -37 383 -82 448 -92 20 -3 44 -7 52 -9 40 -12 439 -76
555 -89 28 -4 61 -8 75 -11 14 -2 48 -7 75 -10 28 -3 84 -10 125 -15 41 -5
107 -12 145 -15 39 -4 84 -8 100 -10 17 -2 93 -9 170 -15 77 -6 164 -13 194
-15 322 -27 1365 -27 1680 0 25 2 84 7 131 10 47 3 103 8 125 10 22 3 92 9
155 15 114 11 492 56 540 64 14 3 75 12 135 20 61 9 124 19 140 21 612 107
1036 206 1616 379 374 110 944 320 1333 490 310 136 729 339 961 466 289 159
584 331 745 435 347 224 504 332 765 524 284 209 654 508 851 686 6 6 46 42
90 80 161 144 216 196 489 470 291 291 341 343 489 510 49 55 103 116 120 135
151 166 578 705 696 877 8 11 53 74 99 139 274 383 528 795 820 1326 107 195
303 604 466 973 225 509 473 1242 635 1880 79 310 193 860 215 1042 4 26 8 55
10 63 7 26 53 360 70 505 9 77 18 154 20 170 2 17 7 68 11 115 3 47 8 92 9
100 2 8 6 69 10 135 4 66 9 127 10 136 26 139 26 1519 0 1658 -1 9 -6 70 -10
136 -4 66 -9 129 -10 140 -2 11 -6 55 -10 97 -3 43 -8 90 -10 105 -1 16 -6 57
-10 93 -4 36 -8 76 -10 90 -2 14 -6 50 -10 80 -3 30 -8 66 -10 80 -3 14 -7 45
-10 70 -11 92 -36 260 -65 425 -48 274 -50 286 -102 525 -22 102 -44 203 -49
225 -5 22 -13 58 -19 80 -6 22 -12 47 -14 55 -2 8 -14 53 -26 100 -11 47 -28
112 -36 145 -32 129 -157 542 -232 765 -111 328 -271 745 -382 995 -210 472
-447 941 -651 1287 -16 27 -29 50 -29 52 0 11 -232 380 -357 571 -233 352
-425 617 -667 920 -108 136 -262 322 -276 335 -3 3 -28 32 -55 65 -28 33 -71
83 -96 110 -25 28 -66 72 -90 100 -100 113 -167 182 -424 440 -314 315 -380
377 -640 605 -1224 1073 -2656 1901 -4220 2440 -592 203 -1483 427 -2010 503
-16 3 -57 10 -90 15 -33 6 -85 14 -115 17 -30 3 -62 8 -70 10 -15 4 -284 38
-390 50 -19 2 -80 8 -135 14 -55 6 -135 13 -177 16 -43 3 -92 8 -110 10 -18 2
-87 7 -153 10 -66 4 -140 9 -165 11 -55 6 -1126 15 -1131 10z"/>
</g>
</svg>
